G04 ================== begin FILE IDENTIFICATION RECORD ==================*
G04 Layout Name:  LAYOUT.brd*
G04 Film Name:    BOTTOM*
G04 File Format:  Gerber RS274X*
G04 File Origin:  Cadence Allegro 17.2-S025*
G04 Origin Date:  Wed Dec 13 20:10:25 2023*
G04 *
G04 Layer:  ETCH/BOTTOM*
G04 Layer:  PIN/BOTTOM*
G04 Layer:  VIA CLASS/BOTTOM*
G04 *
G04 Offset:    (0.0000 0.0000)*
G04 Mirror:    No*
G04 Mode:      Positive*
G04 Rotation:  0*
G04 FullContactRelief:  No*
G04 UndefLineWidth:     0.1000*
G04 ================== end FILE IDENTIFICATION RECORD ====================*
%FSLAX25Y25*MOIN*%
%IR0*IPPOS*OFA0.00000B0.00000*MIA0B0*SFA1.00000B1.00000*%
%ADD10C,.03*%
%ADD11C,.016*%
%ADD12C,.078756*%
G75*
%LPD*%
G75*
G36*
G01X4961Y5669D02*
Y152362D01*
X152362D01*
Y5669D01*
X4961D01*
G37*
%LPC*%
G75*
G36*
G01X32673Y86255D02*
X76198Y42730D01*
X76269Y42723D01*
G02X73093Y39547I-290J-2886D01*
G01X73085Y39618D01*
X40313Y72390D01*
G03X39645Y72215I-283J-283D01*
G02X39051Y71102I-2795J777D01*
G01Y37004D01*
X45203D01*
X56620Y25587D01*
X59055D01*
G02X62835I1890J-2201D01*
G01X79606D01*
G02X83386I1890J-2201D01*
G01X98740D01*
G02Y21185I1890J-2201D01*
G01X83386D01*
G02X79606I-1890J2201D01*
G01X62835D01*
G02X59055I-1890J2201D01*
G01X54797D01*
X43380Y32602D01*
X36850D01*
G02X35309Y33232I0J2201D01*
G01X30236D01*
G02Y37634I-1890J2201D01*
G01X34650D01*
Y71102D01*
G02X36073Y75787I2201J1890D01*
G03X36248Y76455I-107J385D01*
G01X28272Y84432D01*
Y91654D01*
G02X32673I2201J1890D01*
G01Y86255D01*
G37*
G36*
G01X58561Y130572D02*
Y104374D01*
G02Y104339I-2201J-18D01*
G01Y103952D01*
G03X58944Y103665I384J113D01*
G01X86819D01*
X89021Y101463D01*
X89408Y101849D01*
Y103194D01*
G02X93809I2201J1890D01*
G01Y100026D01*
X92713Y98929D01*
G03X92853Y98272I283J-283D01*
G02X88936Y95260I-1032J-2711D01*
G01X88929Y95330D01*
X86781Y97479D01*
X84996Y99264D01*
X58157D01*
G02X54378I-1890J2201D01*
G01X46357D01*
X44662Y97569D01*
X42840D01*
G02X42704Y102080I-1890J2201D01*
G01X42843Y101974D01*
X43765Y102896D01*
X44534Y103665D01*
X54067D01*
Y105176D01*
X54159Y105268D01*
Y130572D01*
G02X58561I2201J1890D01*
G37*
G54D12*
X132661Y132236D03*
X55551Y75039D03*
%LPD*%
G75*
G54D10*
X13465Y9213D03*
X9402Y123024D03*
X28346Y35433D03*
X41659Y46215D03*
X36850Y72992D03*
X30472Y93543D03*
X40950Y99769D03*
X60945Y23386D03*
X75979Y39837D03*
X76850Y60551D03*
X56268Y101465D03*
X48260Y111921D03*
X56360Y132462D03*
X100630Y23386D03*
X81496D03*
X91821Y95561D03*
X91609Y105084D03*
X99921Y95945D03*
X137197Y62315D03*
X120039Y57559D03*
X143150Y10630D03*
G54D11*
G01X60945Y23386D02*
X55709D01*
X44291Y34803D01*
X36850D01*
G01D02*
Y72992D01*
G01X28346Y35433D02*
X36220D01*
X36850Y34803D01*
G01X30472Y93543D02*
Y85343D01*
X75979Y39837D01*
G01X40950Y99769D02*
X43750D01*
X45446Y101465D01*
X56268D01*
G01X60945Y23386D02*
X81496D01*
G01X89021Y98350D02*
X85907Y101465D01*
X56268D01*
G01X56360Y132462D02*
Y104357D01*
X56268Y104265D01*
Y101465D01*
G01X81496Y23386D02*
X100630D01*
G01X91609Y105084D02*
Y100938D01*
X89021Y98350D01*
G01X91821Y95659D02*
X91713D01*
G01D02*
X89021Y98350D01*
G01X91821Y95561D02*
X91810D01*
X91713Y95659D01*
M02*
