M48
INCH,TZ
T01C.015748
;LEADER: 12 
;HEADER: 
;CODE  : ASCII 
;FILE  : DRILL-1-2.drl for  ... layers TOP and BOTTOM
;DESIGN: LAYOUT.brd
;T01 Holesize 1. = 15.748031 Tolerance = +0.000000/-0.000000 PLATED MILS Quantity = 21
%
G90
T01
X99921Y95945
X120039Y57559
X137197Y62315
X9402Y123024
X48260Y111921
X76850Y60551
X13465Y9213
X143150Y10630
X41659Y46215
X56268Y101465
X40950Y99769
X91609Y105084
X91821Y95561
X56360Y132462
X75979Y39837
X30472Y93543
X36850Y72992
X60945Y23386
X81496Y23386
X100630Y23386
X28346Y35433
M30
