G04 ================== begin FILE IDENTIFICATION RECORD ==================*
G04 Layout Name:  LAYOUT.brd*
G04 Film Name:    TOP*
G04 File Format:  Gerber RS274X*
G04 File Origin:  Cadence Allegro 17.2-S025*
G04 Origin Date:  Wed Dec 13 20:10:25 2023*
G04 *
G04 Layer:  ETCH/TOP*
G04 Layer:  PIN/TOP*
G04 Layer:  VIA CLASS/TOP*
G04 *
G04 Offset:    (0.0000 0.0000)*
G04 Mirror:    No*
G04 Mode:      Positive*
G04 Rotation:  0*
G04 FullContactRelief:  No*
G04 UndefLineWidth:     0.1000*
G04 ================== end FILE IDENTIFICATION RECORD ====================*
%FSLAX25Y25*MOIN*%
%IR0*IPPOS*OFA0.00000B0.00000*MIA0B0*SFA1.00000B1.00000*%
%ADD15R,.037402X.057091*%
%ADD16R,.057091X.037402*%
%ADD13R,.036X.05*%
%ADD14R,.05X.036*%
%ADD11C,.03*%
%ADD17R,.051181X.07874*%
%ADD19C,.03937*%
%ADD21C,.07874*%
%ADD12R,.051181X.051181*%
%ADD22R,.048X.076*%
%ADD10R,.12X.076*%
%ADD18R,.062988X.11811*%
%ADD20R,.22835X.244091*%
%ADD23C,.02*%
%ADD24C,.016*%
G75*
%LPD*%
G75*
G54D10*
X13465Y18425D03*
Y42025D03*
X143150Y18211D03*
Y41811D03*
G54D20*
X73465Y116181D03*
G54D11*
X13465Y9213D03*
X9402Y123024D03*
X28346Y35433D03*
X41659Y46215D03*
X36850Y72992D03*
X30472Y93543D03*
X40950Y99769D03*
X60945Y23386D03*
X75979Y39837D03*
X76850Y60551D03*
X56268Y101465D03*
X48260Y111921D03*
X56360Y132462D03*
X100630Y23386D03*
X81496D03*
X91821Y95561D03*
X91609Y105084D03*
X99921Y95945D03*
X137197Y62315D03*
X120039Y57559D03*
X143150Y10630D03*
G54D12*
X16016Y132079D03*
Y123024D03*
X130921Y68488D03*
Y77543D03*
G54D21*
X93189Y42449D03*
G54D22*
X137197Y54213D03*
X129297D03*
G54D13*
X45506Y15286D03*
X41406Y23386D03*
X36850Y79370D03*
X45050D03*
X26372Y79065D03*
X40950Y87470D03*
X30472Y87165D03*
X22272D03*
X49606Y23386D03*
X65045Y38572D03*
X60945Y30472D03*
X69145D03*
X75979Y45758D03*
X71879Y53858D03*
X52168Y87853D03*
X56268Y95953D03*
X48068D03*
X85596Y38572D03*
X81496Y30472D03*
X89696D03*
X104730Y38572D03*
X100630Y30472D03*
X80079Y53858D03*
X90000Y51024D03*
X98200D03*
X94100Y59124D03*
X108830Y30472D03*
G54D23*
G01X13465Y18425D02*
Y9213D01*
G01X27638Y62677D02*
X19323D01*
X13465Y56819D01*
Y42025D01*
G01X45506Y15286D02*
X30652D01*
X13465Y32473D01*
Y42025D01*
G01X16016Y123024D02*
X9402D01*
G01X16016Y132079D02*
X24299D01*
X28827Y127551D01*
G01X45506Y15286D02*
X61830D01*
X61919Y15197D01*
X68740D01*
G01X36446Y46215D02*
X41659D01*
G01D02*
Y37904D01*
X41417Y37662D01*
Y33307D01*
G01X45354Y62677D02*
X27638D01*
G01X45354D02*
X54646D01*
X67795Y75827D01*
X74724D01*
G01X22283Y111472D02*
Y121008D01*
X28827Y127551D01*
G01X30157Y111472D02*
Y102189D01*
G01X38260Y127551D02*
X42780D01*
X44260Y126071D01*
X48260D01*
G01X28827Y127551D02*
X38260D01*
G01X68740Y15197D02*
X89291D01*
G01X73465Y116181D02*
Y102476D01*
X75154Y100787D01*
X95913D01*
X99709Y104583D01*
Y109559D01*
G01X73465Y116181D02*
X59882D01*
X48068Y104367D01*
Y95953D01*
G01X48260Y117871D02*
Y111921D01*
G01X89291Y15197D02*
X109134D01*
G01X80079Y53858D02*
Y57323D01*
X76850Y60551D01*
G01X82598Y75827D02*
Y80350D01*
X82480Y80469D01*
Y87874D01*
G01X76850Y66614D02*
Y60551D01*
G01X84724Y66614D02*
X92441D01*
G01X99709Y109559D02*
X104960D01*
X105275Y109874D01*
X109630D01*
G01X99921Y88987D02*
Y95945D01*
G01X108063Y89024D02*
Y93378D01*
X105496Y95945D01*
X99921D01*
G01X99709Y117759D02*
X105264D01*
X105275Y117748D01*
X109630D01*
G01X129756Y18244D02*
X135617D01*
X135650Y18211D01*
X143150D01*
G01X119218Y48554D02*
Y56738D01*
X120039Y57559D01*
G01X129756Y33409D02*
X140048D01*
X143150Y36511D01*
Y41811D01*
G01X129756Y26118D02*
Y33409D01*
G01X109630Y109874D02*
X120969D01*
G01X131598Y109953D02*
X125402D01*
X125323Y109874D01*
X120969D01*
G01X140811Y109953D02*
Y114520D01*
X137583Y117748D01*
X120969D01*
G01X109630D02*
X120969D01*
G01X143150Y18211D02*
Y10630D01*
G01X137197Y54213D02*
Y62315D01*
G01X147087Y86102D02*
Y52992D01*
X143150Y49055D01*
Y41811D01*
G01X147087Y86102D02*
X144606D01*
X141055Y82551D01*
Y76378D01*
G01X140811Y109953D02*
X145166D01*
X147087Y108032D01*
Y86102D01*
G54D14*
X36446Y46215D03*
X28346Y50315D03*
Y42115D03*
X56360Y121971D03*
X48260Y126071D03*
Y117871D03*
X91821Y84887D03*
X99921Y80787D03*
Y88987D03*
X91609Y113659D03*
X99709Y109559D03*
Y117759D03*
X119218Y48554D03*
X111118Y52654D03*
Y44454D03*
G54D24*
G01X28346Y42115D02*
Y35433D01*
G01X49606Y51417D02*
X45452D01*
X44349Y50315D01*
X28346D01*
G01X36850Y79370D02*
Y72992D01*
G01X26372Y79065D02*
Y74987D01*
X27638Y73721D01*
Y70551D01*
G01X45050Y79370D02*
Y74025D01*
X45354Y73721D01*
Y70551D01*
G01X30472Y87165D02*
Y93543D01*
G01X40950Y87470D02*
Y99769D01*
G01X22283Y102189D02*
Y90976D01*
X22272Y90965D01*
Y87165D01*
G01X60945Y23386D02*
Y30472D01*
G01X49606Y23386D02*
Y28837D01*
X49291Y29152D01*
Y33307D01*
G01X69145Y30472D02*
Y26672D01*
X68740Y26268D01*
Y23071D01*
G01X49606Y43543D02*
Y37777D01*
X49291Y37462D01*
Y33307D01*
G01X75979Y45758D02*
Y39837D01*
G01D02*
X79572D01*
X80837Y38572D01*
X85596D01*
G01X49606Y51417D02*
X57205D01*
X65045Y43577D01*
Y38572D01*
G01X52168Y87853D02*
X60039D01*
Y87874D01*
X64488D01*
G01X56268Y95953D02*
Y101465D01*
G01X56360Y121971D02*
Y132462D01*
G01X89696Y30472D02*
Y26672D01*
X89291Y26268D01*
Y23071D01*
G01X81496Y30472D02*
Y23386D01*
G01X100630Y30472D02*
Y23386D01*
G01X98200Y51024D02*
X101698D01*
X104730Y47992D01*
Y44016D01*
G01D02*
Y38572D01*
G01X111118Y44454D02*
X105168D01*
X104730Y44016D01*
G01X85596Y38572D02*
Y42820D01*
X87333Y44556D01*
G01D02*
X90000Y47224D01*
Y51024D01*
G01X93189Y42449D02*
X89440D01*
X87333Y44556D01*
G01X99921Y80787D02*
Y75827D01*
X100315Y75433D01*
Y66614D01*
G01D02*
Y60724D01*
X98715Y59124D01*
X94100D01*
G01X91821Y84887D02*
Y95561D01*
G01X91609Y113659D02*
Y105084D01*
G01X108830Y30472D02*
Y26672D01*
X109134Y26369D01*
Y23071D01*
G01X129756Y41283D02*
Y48654D01*
X129297Y49113D01*
Y54213D01*
G01X111118Y52654D02*
Y58370D01*
X108677Y60811D01*
Y73016D01*
G01X141055Y68504D02*
X136900D01*
X136885Y68488D01*
X130921D01*
G01X132024Y89094D02*
Y84940D01*
X130921Y83837D01*
Y77543D01*
G01D02*
X122346D01*
X117819Y73016D01*
X108677D01*
G01X124150Y89094D02*
X119178D01*
X119107Y89024D01*
X115937D01*
G01X131598Y102079D02*
X140811D01*
G54D15*
X41417Y33307D03*
X22283Y102189D03*
X30157D03*
Y111472D03*
X22283D03*
X49291Y33307D03*
X76850Y66614D03*
X74724Y75827D03*
X100315Y66614D03*
X92441D03*
X84724D03*
X82598Y75827D03*
X108063Y89024D03*
X132024Y89094D03*
X124150D03*
X115937Y89024D03*
G54D16*
X45354Y62677D03*
Y70551D03*
X27638Y62677D03*
Y70551D03*
X68740Y15197D03*
Y23071D03*
X49606Y51417D03*
Y43543D03*
X89291Y15197D03*
Y23071D03*
X109134Y15197D03*
Y23071D03*
X129756Y26118D03*
Y18244D03*
Y33409D03*
Y41283D03*
X109630Y109874D03*
X120969D03*
X131598Y109953D03*
Y102079D03*
X109630Y117748D03*
X120969D03*
X141055Y76378D03*
Y68504D03*
X140811Y102079D03*
Y109953D03*
G54D17*
X38260Y127551D03*
X108677Y73016D03*
G54D18*
X64488Y87874D03*
X82480D03*
G54D19*
X55551Y75039D03*
X132661Y132236D03*
M02*
